<svg xmlns="http://www.w3.org/2000/svg" viewBox="0 0 88 88">
  <title>Artboard-7</title>
  <g id="Setting">
    <path d="M44,25A19,19,0,1,0,63,44,19.0216,19.0216,0,0,0,44,25Zm8,15a1,1,0,0,1-1,1H47a1,1,0,0,1-1-1V38.8311A.8323.8323,0,0,0,45.1689,38H42.8311A.8323.8323,0,0,0,42,38.8311a.846.846,0,0,0,.4028.7119l6.2808,3.769A6.8251,6.8251,0,0,1,47,55.7427V58a1,1,0,0,1-1,1H42a1,1,0,0,1-1-1V55.7432a6.8372,6.8372,0,0,1-5-6.5743V48a1,1,0,0,1,1-1h4a1,1,0,0,1,1,1v1.1689A.8323.8323,0,0,0,42.8311,50h2.3378A.8323.8323,0,0,0,46,49.1689a.846.846,0,0,0-.4028-.7119l-6.2808-3.769A6.8614,6.8614,0,0,1,36,38.8311a6.8353,6.8353,0,0,1,5-6.5743V30a1,1,0,0,1,1-1h4a1,1,0,0,1,1,1v2.2573a6.8659,6.8659,0,0,1,5,6.5738Z" style="fill: rgba(50, 50, 50, 1); "/>
    <path d="M45.8579,34.0562a1,1,0,0,1-.8579-.99V31H43v2.0664a1,1,0,0,1-.8579.99A4.8328,4.8328,0,0,0,38,38.8311a4.8508,4.8508,0,0,0,2.3452,4.1416l6.2808,3.7695A2.8307,2.8307,0,0,1,45.1689,52H42.8311A2.8343,2.8343,0,0,1,40,49.1689V49H38v.1689a4.8338,4.8338,0,0,0,4.1421,4.7749,1,1,0,0,1,.8579.99V57h2V54.9336a1,1,0,0,1,.8579-.99,4.8258,4.8258,0,0,0,1.7969-8.9165L41.374,41.2578A2.8307,2.8307,0,0,1,42.8311,36h2.3378A2.8343,2.8343,0,0,1,48,38.8311V39h2v-.1689A4.8505,4.8505,0,0,0,45.8579,34.0562Z" style="fill: rgba(35, 35, 35, 1); "/>
    <path d="M86.1416,35.1528,74.2109,33.4487a32.0033,32.0033,0,0,0-1.3891-3.3476l7.2324-9.6436a1,1,0,0,0-.0928-1.3071L68.85,8.0386a1,1,0,0,0-1.3071-.0928l-9.6436,7.2324a32.0392,32.0392,0,0,0-3.3476-1.3891L52.8467,1.8584A1,1,0,0,0,51.8569,1H36.1431a1,1,0,0,0-.99.8584L33.4487,13.7891a32.0392,32.0392,0,0,0-3.3476,1.3891L20.4575,7.9458a1,1,0,0,0-1.3071.0928L8.0386,19.15a1,1,0,0,0-.0928,1.3071l7.2324,9.6436a32.0033,32.0033,0,0,0-1.3891,3.3476L1.8584,35.1528a1,1,0,0,0-.8584.99V51.8569a1,1,0,0,0,.8584.99l11.9307,1.7046a32.0392,32.0392,0,0,0,1.3891,3.3476L7.9458,67.5425A1,1,0,0,0,8.0386,68.85L19.15,79.9614a1,1,0,0,0,1.3071.0928l9.6436-7.2324a32.0392,32.0392,0,0,0,3.3476,1.3891l1.7046,11.9307a1,1,0,0,0,.99.8584H51.8569a1,1,0,0,0,.99-.8584l1.7046-11.9307a32.0392,32.0392,0,0,0,3.3476-1.3891l9.6436,7.2324a1,1,0,0,0,1.3071-.0928L79.9614,68.85a1,1,0,0,0,.0928-1.3071l-7.2324-9.6436a32.0392,32.0392,0,0,0,1.3891-3.3476l11.9307-1.7046a1,1,0,0,0,.8584-.99V36.1426A1,1,0,0,0,86.1416,35.1528ZM44,69A25,25,0,1,1,69,44,25.0281,25.0281,0,0,1,44,69Z" style="fill: rgba(50, 50, 50, 1); "/>
    <path d="M44,21A23,23,0,1,0,67,44,23.0262,23.0262,0,0,0,44,21Zm0,44A21,21,0,1,1,65,44,21.0236,21.0236,0,0,1,44,65Z" style="fill: rgba(35, 35, 35, 1); "/>
  </g>
</svg>
